<svg xmlns="http://www.w3.org/2000/svg" xmlns:xlink="http://www.w3.org/1999/xlink" width="123" height="123" viewBox="0 0 123 123">
  <defs>
    <clipPath id="clip-path">
      <rect id="Rectangle_14" data-name="Rectangle 14" width="123" height="123" fill="#fff" stroke="#707070" stroke-width="1"/>
    </clipPath>
  </defs>
  <g id="Mask_Group_3" data-name="Mask Group 3" clip-path="url(#clip-path)">
    <g id="f7a0506ddf7e0edd634b9ebb5c11cbcc" transform="translate(-0.624 0.273)">
      <circle id="Ellipse_1" data-name="Ellipse 1" cx="25.178" cy="25.178" r="25.178" transform="translate(48.789 36.194)" fill="#b16464"/>
      <path id="Path_9" data-name="Path 9" d="M111.4,90.945a20.226,20.226,0,0,0-10.688,3.1l-6.081-6.081a29.438,29.438,0,0,0,0-34.947l11.532-11.532a17.127,17.127,0,0,0,8.378,2.253,17.31,17.31,0,1,0-17.31-17.31A17.127,17.127,0,0,0,99.489,34.8L87.957,46.335a29.478,29.478,0,0,0-39.845,4.52L43.4,48.513a17.3,17.3,0,1,0-16.983,14.1,17.2,17.2,0,0,0,12.728-5.671l3.8,1.888a29.6,29.6,0,0,0,3.38,29.125L34.8,99.486a17.127,17.127,0,0,0-8.378-2.253,17.31,17.31,0,1,0,17.31,17.31,17.127,17.127,0,0,0-2.253-8.378L53.01,94.633a29.438,29.438,0,0,0,34.947,0l6.081,6.081a20.4,20.4,0,1,0,17.36-9.769ZM26.428,53.177A7.868,7.868,0,1,1,34.3,45.309,7.879,7.879,0,0,1,26.428,53.177Zm88.124-34.62a7.868,7.868,0,1,1-7.868,7.868A7.879,7.879,0,0,1,114.552,18.557ZM26.428,122.418a7.868,7.868,0,1,1,7.868-7.868A7.879,7.879,0,0,1,26.428,122.418Zm23.6-51.93a20.363,20.363,0,0,1,1.441-7.421l.05.025,2.008-4.041a20.446,20.446,0,1,1-3.506,11.437Zm61.372,51.93A11.015,11.015,0,1,1,122.42,111.4,11.028,11.028,0,0,1,111.4,122.418Z" transform="translate(-9.111 -9.115)" fill="#364355"/>
    </g>
  </g>
</svg>
