<svg id="_37e9a6aa8b1e8fb5c708c4589bad42f6" data-name="37e9a6aa8b1e8fb5c708c4589bad42f6" xmlns="http://www.w3.org/2000/svg" width="36" height="36" viewBox="0 0 36 36">
  <path id="Path_81" data-name="Path 81" d="M10.548,9.548a1.871,1.871,0,0,1,2.646,0l5.614,5.614a1.871,1.871,0,1,1-2.646,2.646l-5.614-5.614a1.871,1.871,0,0,1,0-2.646Z" transform="translate(2.434 3.435)" fill="#f05e34"/>
  <path id="Path_82" data-name="Path 82" d="M2.527,2.527a1.8,1.8,0,0,1,1.924-.405l32.4,12.6a1.8,1.8,0,0,1-.02,3.363L23.2,23.2,18.087,36.834A1.8,1.8,0,0,1,16.412,38H16.4a1.8,1.8,0,0,1-1.678-1.148L2.122,4.45a1.8,1.8,0,0,1,.405-1.923ZM16.37,31.149l3.746-9.989a1.8,1.8,0,0,1,1.053-1.053l9.992-3.737L6.961,6.961Z" transform="translate(-2.001 -2)" fill="#f05e34"/>
</svg>
